<svg xmlns="http://www.w3.org/2000/svg" xmlns:xlink="http://www.w3.org/1999/xlink" viewBox="0 0 498.8 498.8"><defs><style>.cls-1{stroke:#000;stroke-miterlimit:10;fill:url(#radial-gradient);}.cls-2{fill:url(#radial-gradient-2);}.cls-3{fill:url(#radial-gradient-3);}.cls-4{fill:#fefefe;}</style><radialGradient id="radial-gradient" cx="249.4" cy="249.4" r="248.9" gradientUnits="userSpaceOnUse"><stop offset="0.15" stop-color="#fff"/><stop offset="0.47" stop-color="#fffdfd"/><stop offset="0.59" stop-color="#fef6f7"/><stop offset="0.67" stop-color="#fdeaeb"/><stop offset="0.74" stop-color="#fcdadb"/><stop offset="0.8" stop-color="#fac4c6"/><stop offset="0.85" stop-color="#f8a8ab"/><stop offset="0.9" stop-color="#f6888c"/><stop offset="0.94" stop-color="#f36268"/><stop offset="0.98" stop-color="#ef3940"/><stop offset="1" stop-color="#ed1c24"/></radialGradient><radialGradient id="radial-gradient-2" cx="249.4" cy="249.4" r="209.53" gradientUnits="userSpaceOnUse"><stop offset="0" stop-color="#fff"/><stop offset="0.37" stop-color="#fdfdfd"/><stop offset="0.51" stop-color="#f6f6f6"/><stop offset="0.6" stop-color="#ebebeb"/><stop offset="0.68" stop-color="#dadada"/><stop offset="0.75" stop-color="#c4c4c4"/><stop offset="0.8" stop-color="#a8a8a8"/><stop offset="0.86" stop-color="#888"/><stop offset="0.91" stop-color="#626262"/><stop offset="0.95" stop-color="#373737"/><stop offset="0.99" stop-color="#090909"/><stop offset="1"/></radialGradient><radialGradient id="radial-gradient-3" cx="249.4" cy="249.4" r="170.71" gradientUnits="userSpaceOnUse"><stop offset="0.15" stop-color="#ffa094"/><stop offset="0.5" stop-color="#ff5b54"/><stop offset="1" stop-color="red"/></radialGradient></defs><title>Asset 1</title><g id="Layer_2" data-name="Layer 2"><g id="Layer_2-2" data-name="Layer 2"><circle class="cls-1" cx="249.4" cy="249.4" r="248.9"/><circle class="cls-2" cx="249.4" cy="249.4" r="209.53"/><circle class="cls-3" cx="249.4" cy="249.4" r="170.71"/><path class="cls-4" d="M152.55,325.83l-6.48-.11c-.77,0-1.66.22-1.89-.91-.37-4,.09-8-.28-12-.17-1.86,1-3.52,2.18-5a9.61,9.61,0,0,1,8.17-3.6,9.84,9.84,0,0,0,3.5-.53,1.81,1.81,0,0,0,.47-1.55,8.75,8.75,0,0,1,3.4-6.87,5.62,5.62,0,0,1,3.57-1.18c23.3,0,46.6,0,69.9,0,3.58,0,6,1.4,7.31,4.76.66,1.63.1,3.84,1.26,5s3.36.18,5.09.42a8.94,8.94,0,0,1,7,4.52,17,17,0,0,1,2.1,5.91c.21,2.64.07,5.27.11,7.91-.39,3.4-.87,3.87-4.16,3.88-5.31,0-10.61,0-15.91,0-6.46-.16-12.91.17-19.37,0-7.26-.24-14.52.2-21.78,0-6.29-.19-12.58.19-18.87,0-4-.22-8.06.16-12.09,0-2.45-.14-4.89-.07-7.34,0C156.47,326.17,154.38,327.1,152.55,325.83Z"/><path class="cls-4" d="M230.27,138.8l1.31-.15a3.66,3.66,0,0,1,2.38,0c5,.89,8.66,4.39,13.1,6.36,3.4.68,5.83,3.24,8.88,4.6.72.32,1.37.82,2.07,1.2,3.86,2.3,7.75,4.55,11.64,6.79,4.15,2.49,8.37,4.86,12.52,7.34,3.25,1.92,6.54,3.76,9.77,5.72a15.38,15.38,0,0,1,4,3.8c1.14,1.51,1.44,3.33,1.92,5.08.24,2.86-1,5.19-2.58,7.43-3.93,4-8.74,4.34-14.69,1.2q-4.15-2.61-8.48-5c-4.61-2.87-9.41-5.41-14.06-8.22-3.07-1.78-6.12-3.61-9.23-5.35-3.53-2.13-7.11-4.19-10.69-6.24-2.63-1.71-5.45-3.09-8.08-4.78a12.8,12.8,0,0,0-1.11-.69,9.22,9.22,0,0,1-1.67-1.09c-1.5-1.58-3.29-2.91-4.12-5a12.88,12.88,0,0,1-.48-2.15c0-1.65-.23-3.33.53-4.9.92-1.57,1.52-3.41,3.45-4.14Z"/><path class="cls-4" d="M336.29,281.09a22.71,22.71,0,0,0-4.84-2.81c-2.41-.34-4.09-1.95-5.85-3.42a44.8,44.8,0,0,0-6.76-3.94,65.1,65.1,0,0,0-8.2-4.77,77.89,77.89,0,0,0-9.18-5.35c-2.22-.29-3.78-1.91-5.7-2.82a28.79,28.79,0,0,0-3.18-1.62c-2.81-2-5.79-3.63-8.78-5.3-2.26-1.33-4.45-2.8-6.83-3.94q-4.5-2.88-9.25-5.35c-3.1-2-6.39-3.76-9.57-5.68-1.6-1-1.84-2-.88-3.54,3-5,5.79-10.07,8.76-15.06,1.58-2.25,1.58-2.26,4-.91,5.5,3.12,10.9,6.41,16.42,9.5,3.2,2,6.46,3.84,9.72,5.71a46.67,46.67,0,0,0,4.8,2.77,6.22,6.22,0,0,1,.56.32,11,11,0,0,0,1.67,1c4.6,2.72,9.24,5.36,13.83,8.08,2.78,1.61,5.59,3.15,8.33,4.82,3.08,1.75,6.09,3.6,9.19,5.32,2.18,1.42,4.51,2.61,6.75,3.94,3.53,2.13,7.1,4.18,10.68,6.23,1.95,1.54,4.58,2.07,6.14,4.17l5.28,3.12a6.21,6.21,0,0,0,2.47,1.37c.4.42,1.22.15,1.45.87a67.51,67.51,0,0,0,7.74,4.46c1.16.64,1.14,1.38.48,2.48-2,3.36-3.88,6.78-5.8,10.17a1,1,0,0,0-.53.92,2.8,2.8,0,0,1-1.14,1.89c-1.21,1.13-1.26,3.64-2.88,3.76-1.32.1-2.75-1.39-4.14-2.17a2.07,2.07,0,0,0-.46-.11,107.93,107.93,0,0,0-10.18-6c-3-1.7-5.72-3.73-8.85-5.13A27.86,27.86,0,0,0,336.29,281.09Z"/><path class="cls-4" d="M213.16,268.06c-5.89-3.55-11.62-7.36-17.93-10.17-.44-.2-.38-.93-1-.88-3.29-.73-5.69-3.18-8.67-4.51-.58-.26-1.1-.65-1.66-1-3-1.75-6.05-3.46-9-5.38-2.05-2-4-4.19-4.39-7.23a11,11,0,0,1-.1-3.57,3.72,3.72,0,0,1,.19-.65c.51-.84,1.06-1.65,1.5-2.52.3-.46.68-.85,1-1.28a7.93,7.93,0,0,1,1.73-1.64,10.25,10.25,0,0,1,6.21-1.78,18.55,18.55,0,0,1,8.81,3.38c6,3.66,12.1,7.06,18.11,10.65,3.6,2.09,7.19,4.21,10.81,6.27,6.65,3.9,13.28,7.82,20,11.62,3.89,2.21,6.38,5.28,7,9.79.09,3.4-1.43,6.09-3.76,8.41-4.25,2.88-8.59,2.72-12.92.24-4-2.32-8.13-4.52-12.18-6.8A12.87,12.87,0,0,1,213.16,268.06Z"/><path class="cls-4" d="M206.79,197.84a28.33,28.33,0,0,0,3-5.19,26.57,26.57,0,0,0,2.87-4.92,24.58,24.58,0,0,0,2.87-5,15.31,15.31,0,0,0,2.47-4.15,25.25,25.25,0,0,0,2.88-4.92,47.38,47.38,0,0,0,3.9-6.72c.84-1.35,1.75-2.66,2.48-4.06s1.57-2.11,3.2-.92a52.69,52.69,0,0,0,5,2.85l11.13,6.44,8.22,4.9,13.12,7.58,10.18,5.89c1,1.79-1.07,2.57-1.32,3.95-.59,1.09-1.19,2.18-1.79,3.27a5.87,5.87,0,0,0-1.33,2.34,57.55,57.55,0,0,0-4.11,6.94,109.09,109.09,0,0,0-5.57,9.67q-8.7,14.81-17.41,29.62c-.64,1.1-1.22,2.24-1.83,3.36l-5,8.19-18.93-11.09a2.83,2.83,0,0,0-1.79-.56c-3.57-1.77-6.93-3.92-10.39-5.88-5.57-3.13-11-6.58-16.67-9.46-2.92-1.59-3.13-2.22-1.51-5,1-1.65,1.88-3.33,2.86-5,3.77-6.26,7.37-12.61,11.09-18.9C205,199.92,205.56,198.6,206.79,197.84Z"/></g></g></svg>